<?xml version="1.0" encoding="UTF-8" standalone="no"?>
<!DOCTYPE svg PUBLIC "-//W3C//DTD SVG 1.1//EN"
 "http://www.w3.org/Graphics/SVG/1.1/DTD/svg11.dtd">
<!-- Generated by graphviz version 13.0.1 (20250615.1724)
 -->
<!-- Pages: 1 -->
<svg width="361pt" height="380pt"
 viewBox="0.00 0.00 361.00 380.00" xmlns="http://www.w3.org/2000/svg" xmlns:xlink="http://www.w3.org/1999/xlink">
<g id="graph0" class="graph" transform="scale(1 1) rotate(0) translate(4 376.13)">
<polygon fill="white" stroke="none" points="-4,4 -4,-376.13 356.65,-376.13 356.65,4 -4,4"/>
<!-- x1 -->
<g id="node1" class="node">
<title>x1</title>
<ellipse fill="lightgray" stroke="black" cx="61.03" cy="-188.13" rx="20.13" ry="20.13"/>
<text xml:space="preserve" text-anchor="middle" x="61.03" y="-183.08" font-family="Times New Roman,serif" font-size="14.00">x1</text>
</g>
<!-- h1 -->
<g id="node3" class="node">
<title>h1</title>
<ellipse fill="lightblue" stroke="black" cx="182.4" cy="-20.13" rx="20.13" ry="20.13"/>
<text xml:space="preserve" text-anchor="middle" x="182.4" y="-15.08" font-family="Times New Roman,serif" font-size="14.00">h1</text>
</g>
<!-- x1&#45;&gt;h1 -->
<g id="edge8" class="edge">
<title>x1&#45;&gt;h1</title>
<path fill="none" stroke="black" d="M73.41,-172.06C81.24,-160.92 91.83,-145.71 100.9,-132.13 117.34,-107.53 119.67,-100.19 136.9,-76.13 144.68,-65.27 153.78,-53.64 161.72,-43.81"/>
<polygon fill="black" stroke="black" points="164.32,-46.16 167.94,-36.2 158.9,-41.73 164.32,-46.16"/>
</g>
<!-- h2 -->
<g id="node4" class="node">
<title>h2</title>
<ellipse fill="lightblue" stroke="black" cx="182.4" cy="-132.13" rx="20.13" ry="20.13"/>
<text xml:space="preserve" text-anchor="middle" x="182.4" y="-127.08" font-family="Times New Roman,serif" font-size="14.00">h2</text>
</g>
<!-- x1&#45;&gt;h2 -->
<g id="edge9" class="edge">
<title>x1&#45;&gt;h2</title>
<path fill="none" stroke="black" d="M79.64,-179.87C99.04,-170.77 130.49,-156.01 153.3,-145.31"/>
<polygon fill="black" stroke="black" points="154.78,-148.49 162.34,-141.07 151.8,-142.15 154.78,-148.49"/>
</g>
<!-- h3 -->
<g id="node5" class="node">
<title>h3</title>
<ellipse fill="lightblue" stroke="black" cx="182.4" cy="-244.13" rx="20.13" ry="20.13"/>
<text xml:space="preserve" text-anchor="middle" x="182.4" y="-239.08" font-family="Times New Roman,serif" font-size="14.00">h3</text>
</g>
<!-- x1&#45;&gt;h3 -->
<g id="edge10" class="edge">
<title>x1&#45;&gt;h3</title>
<path fill="none" stroke="black" d="M79.64,-196.39C99.04,-205.49 130.49,-220.25 153.3,-230.95"/>
<polygon fill="black" stroke="black" points="151.8,-234.11 162.34,-235.19 154.78,-227.78 151.8,-234.11"/>
</g>
<!-- x2 -->
<g id="node2" class="node">
<title>x2</title>
<ellipse fill="lightgray" stroke="black" cx="61.03" cy="-76.13" rx="20.13" ry="20.13"/>
<text xml:space="preserve" text-anchor="middle" x="61.03" y="-71.08" font-family="Times New Roman,serif" font-size="14.00">x2</text>
</g>
<!-- x2&#45;&gt;h1 -->
<g id="edge11" class="edge">
<title>x2&#45;&gt;h1</title>
<path fill="none" stroke="black" d="M79.64,-67.87C99.04,-58.77 130.49,-44.01 153.3,-33.31"/>
<polygon fill="black" stroke="black" points="154.78,-36.49 162.34,-29.07 151.8,-30.15 154.78,-36.49"/>
</g>
<!-- x2&#45;&gt;h2 -->
<g id="edge12" class="edge">
<title>x2&#45;&gt;h2</title>
<path fill="none" stroke="black" d="M79.64,-84.39C99.04,-93.49 130.49,-108.25 153.3,-118.95"/>
<polygon fill="black" stroke="black" points="151.8,-122.11 162.34,-123.19 154.78,-115.78 151.8,-122.11"/>
</g>
<!-- x2&#45;&gt;h3 -->
<g id="edge13" class="edge">
<title>x2&#45;&gt;h3</title>
<path fill="none" stroke="black" d="M73.41,-92.2C81.24,-103.34 91.83,-118.55 100.9,-132.13 117.34,-156.73 119.67,-164.07 136.9,-188.13 144.68,-199 153.78,-210.62 161.72,-220.45"/>
<polygon fill="black" stroke="black" points="158.9,-222.53 167.94,-228.06 164.32,-218.1 158.9,-222.53"/>
</g>
<!-- y1 -->
<g id="node6" class="node">
<title>y1</title>
<ellipse fill="lightgreen" stroke="black" cx="308.28" cy="-188.13" rx="20.13" ry="20.13"/>
<text xml:space="preserve" text-anchor="middle" x="308.28" y="-183.08" font-family="Times New Roman,serif" font-size="14.00">y1</text>
</g>
<!-- h1&#45;&gt;y1 -->
<g id="edge14" class="edge">
<title>h1&#45;&gt;y1</title>
<path fill="none" stroke="black" d="M195.91,-35.03C205.07,-46.13 217.63,-61.79 227.9,-76.13 245.13,-100.19 246.82,-107.97 263.9,-132.13 271.43,-142.79 280.17,-154.23 287.82,-163.97"/>
<polygon fill="black" stroke="black" points="284.85,-165.87 293.81,-171.53 290.34,-161.52 284.85,-165.87"/>
</g>
<!-- y2 -->
<g id="node7" class="node">
<title>y2</title>
<ellipse fill="lightgreen" stroke="black" cx="308.28" cy="-76.13" rx="20.13" ry="20.13"/>
<text xml:space="preserve" text-anchor="middle" x="308.28" y="-71.08" font-family="Times New Roman,serif" font-size="14.00">y2</text>
</g>
<!-- h1&#45;&gt;y2 -->
<g id="edge15" class="edge">
<title>h1&#45;&gt;y2</title>
<path fill="none" stroke="black" d="M201.15,-28.15C221.57,-37.39 255.36,-52.66 279.33,-63.5"/>
<polygon fill="black" stroke="black" points="277.63,-66.57 288.18,-67.5 280.51,-60.19 277.63,-66.57"/>
</g>
<!-- h2&#45;&gt;y1 -->
<g id="edge16" class="edge">
<title>h2&#45;&gt;y1</title>
<path fill="none" stroke="black" d="M201.15,-140.15C221.57,-149.39 255.36,-164.66 279.33,-175.5"/>
<polygon fill="black" stroke="black" points="277.63,-178.57 288.18,-179.5 280.51,-172.19 277.63,-178.57"/>
</g>
<!-- h2&#45;&gt;y2 -->
<g id="edge17" class="edge">
<title>h2&#45;&gt;y2</title>
<path fill="none" stroke="black" d="M201.15,-124.11C221.57,-114.88 255.36,-99.6 279.33,-88.77"/>
<polygon fill="black" stroke="black" points="280.51,-92.07 288.18,-84.76 277.63,-85.69 280.51,-92.07"/>
</g>
<!-- h3&#45;&gt;y1 -->
<g id="edge18" class="edge">
<title>h3&#45;&gt;y1</title>
<path fill="none" stroke="black" d="M201.15,-236.11C221.57,-226.88 255.36,-211.6 279.33,-200.77"/>
<polygon fill="black" stroke="black" points="280.51,-204.07 288.18,-196.76 277.63,-197.69 280.51,-204.07"/>
</g>
<!-- h3&#45;&gt;y2 -->
<g id="edge19" class="edge">
<title>h3&#45;&gt;y2</title>
<path fill="none" stroke="black" d="M195.91,-229.24C205.07,-218.13 217.63,-202.47 227.9,-188.13 245.13,-164.07 246.82,-156.29 263.9,-132.13 271.43,-121.48 280.17,-110.03 287.82,-100.29"/>
<polygon fill="black" stroke="black" points="290.34,-102.74 293.81,-92.73 284.85,-98.39 290.34,-102.74"/>
</g>
<!-- input_label -->
<g id="node8" class="node">
<title>input_label</title>
<text xml:space="preserve" text-anchor="middle" x="61.03" y="-293.08" font-family="Times New Roman,serif" font-size="14.00">Input Layer</text>
</g>
<!-- input_label&#45;&gt;x1 -->
<!-- input_label&#45;&gt;x2 -->
<!-- hidden_label -->
<g id="node9" class="node">
<title>hidden_label</title>
<text xml:space="preserve" text-anchor="middle" x="182.4" y="-349.08" font-family="Times New Roman,serif" font-size="14.00">Hidden Layer</text>
</g>
<!-- hidden_label&#45;&gt;h1 -->
<!-- hidden_label&#45;&gt;h2 -->
<!-- hidden_label&#45;&gt;h3 -->
<!-- output_label -->
<g id="node10" class="node">
<title>output_label</title>
<text xml:space="preserve" text-anchor="middle" x="308.28" y="-293.08" font-family="Times New Roman,serif" font-size="14.00">Output Layer</text>
</g>
<!-- output_label&#45;&gt;y1 -->
<!-- output_label&#45;&gt;y2 -->
</g>
</svg>
